<svg width="32" height="32" viewBox="0 0 24 24" fill="none" xmlns="http://www.w3.org/2000/svg">
  <rect width="24" height="24" rx="4" fill="#4F46E5"/>
  <path d="M7 7.8C7 7.36 7 7.14 7.072 6.964C7.135 6.808 7.242 6.677 7.38 6.591C7.536 6.494 7.75 6.466 8.176 6.41L16.824 5.09C17.25 5.034 17.463 5.006 17.637 5.071C17.792 5.128 17.92 5.235 18 5.376C18.09 5.536 18.09 5.756 18.09 6.196V17.2C18.09 17.64 18.09 17.86 18.018 18.036C17.955 18.192 17.848 18.323 17.71 18.409C17.554 18.506 17.34 18.534 16.914 18.59L8.266 19.91C7.84 19.966 7.627 19.994 7.453 19.929C7.298 19.872 7.17 19.765 7.09 19.624C7 19.464 7 19.244 7 18.804V7.8Z" fill="white"/>
  <path d="M11.75 8.36987C11.75 8.04294 11.4179 7.82034 11.1181 7.96131L8.11809 9.46131C7.84696 9.58791 7.84696 9.97203 8.11809 10.0986L11.1181 11.5986C11.4179 11.7396 11.75 11.517 11.75 11.1901V8.36987Z" fill="#4F46E5"/>
</svg>